<svg width="100" height="56" viewBox="0 0 100 56" fill="none" xmlns="http://www.w3.org/2000/svg">
<g clip-path="url(#clip0_320_16)">
<path d="M3.3976 41.21L0 -0.3125L40.5762 -0.229057L36.9836 41.21L20.4412 46L3.3976 41.21Z" fill="#1B73BA"/>
<path d="M20.4414 42.3803V4.03247L37.1509 4.0881L34.1712 38.3979L20.4414 42.3803Z" fill="#1C88C7"/>
<path d="M33.0016 8.93408H7.29688L7.99322 13.9466H20.1909L8.18824 19.0987L8.88426 23.9443H26.5686L25.9279 30.7114L19.9403 31.8812L14.5099 30.4889L14.0921 26.6456H9.1071L9.7753 34.6385L20.4694 37.6182L30.7182 34.36L32.0271 18.7365H21.1932L33.0012 13.8353L33.0016 8.93408Z" fill="white"/>
</g>
<g clip-path="url(#clip1_320_16)">
<path d="M62.8214 41.6008L59.4238 0.0776367L100 0.16108L96.4074 41.6008L79.8651 46.3908L62.8214 41.6008Z" fill="#E9CA32"/>
<path d="M79.8652 42.3807V4.03223L96.5748 4.08786L93.595 38.398L79.8652 42.3807Z" fill="#FFDE25"/>
<path d="M78.0756 8.58545H73.6581V34.1092L70.2222 33.4547V30.0188L66.1318 29.3644V37.0542L78.0756 40.1629V8.58545ZM81.3895 8.58545H93.6189L92.8009 13.4775H86.058V21.5054H92.8009L91.9828 37.7087L81.3895 40.1629V35.0909L88.5469 32.6367L88.9602 25.9285L81.3895 27.0247V8.58545Z" fill="white"/>
</g>
<g clip-path="url(#clip2_320_16)">
<path d="M31.9845 50.9319L28.5869 9.40869L69.1631 9.49213L65.5705 50.9319L49.0282 55.7218L31.9845 50.9319Z" fill="#E34F26"/>
<path d="M49.0283 51.7117V13.3633L65.7379 13.4189L62.7581 47.729L49.0283 51.7117Z" fill="#EF652A"/>
<path d="M61.1427 22.9435L61.6158 17.8748H35.9111L37.3313 33.4148H55.0713L54.3756 40.0428L48.6943 41.5742L42.9295 39.9034L42.6232 35.9488H37.5263L38.2227 44.0251L48.6939 46.9492L59.2487 44.0251L60.6688 28.2626H42.0381L41.509 22.9435H61.1427Z" fill="white"/>
</g>
<defs>
<clipPath id="clip0_320_16">
<rect width="40.5762" height="46.4684" fill="white"/>
</clipPath>
<clipPath id="clip1_320_16">
<rect width="40.5762" height="46.4684" fill="white" transform="translate(59.4238)"/>
</clipPath>
<clipPath id="clip2_320_16">
<rect width="40.5762" height="46.4684" fill="white" transform="translate(28.5869 9.33105)"/>
</clipPath>
</defs>
</svg>
